<?xml version="1.0" encoding="UTF-8"?>
<svg xmlns="http://www.w3.org/2000/svg" xmlns:xlink="http://www.w3.org/1999/xlink" width="300px" height="182px" viewBox="0 0 300 182" version="1.1">
<g id="surface1">
<path style=" stroke:none;fill-rule:nonzero;fill:rgb(100%,39.607843%,51.764706%);fill-opacity:1;" d="M 40.277344 23.996094 C 40.277344 32.542969 33.359375 39.472656 24.824219 39.472656 C 16.289062 39.472656 9.371094 32.542969 9.371094 23.996094 C 9.371094 15.449219 16.289062 8.519531 24.824219 8.519531 C 33.359375 8.519531 40.277344 15.449219 40.277344 23.996094 Z M 40.277344 23.996094 "/>
<path style=" stroke:none;fill-rule:nonzero;fill:rgb(90.196078%,90.196078%,90.196078%);fill-opacity:1;" d="M 298.324219 175.878906 C 298.324219 172.535156 231.539062 169.824219 149.160156 169.824219 C 66.78125 169.824219 0 172.535156 0 175.878906 C 0 179.222656 66.78125 181.933594 149.160156 181.933594 C 231.539062 181.933594 298.324219 179.222656 298.324219 175.878906 Z M 298.324219 175.878906 "/>
<path style=" stroke:none;fill-rule:nonzero;fill:rgb(42.352941%,38.823529%,100%);fill-opacity:1;" d="M 75.925781 61.972656 C 75.925781 82.96875 58.925781 99.988281 37.960938 99.988281 C 16.996094 99.988281 0 82.96875 0 61.972656 C 0 40.980469 16.996094 23.960938 37.960938 23.960938 C 58.925781 23.960938 75.925781 40.980469 75.925781 61.972656 Z M 75.925781 61.972656 "/>
<path style=" stroke:none;fill-rule:nonzero;fill:rgb(24.705882%,23.921569%,33.72549%);fill-opacity:1;" d="M 41.621094 176.476562 L 33.84375 176.476562 L 37.390625 56.25 Z M 41.621094 176.476562 "/>
<path style=" stroke:none;fill-rule:nonzero;fill:rgb(24.705882%,23.921569%,33.72549%);fill-opacity:1;" d="M 38.074219 79.035156 L 46.421875 67.46875 L 37.960938 81.898438 L 37.046875 80.292969 Z M 38.074219 79.035156 "/>
<path style=" stroke:none;fill-rule:nonzero;fill:rgb(24.705882%,23.921569%,33.72549%);fill-opacity:1;" d="M 37.160156 90.714844 L 28.8125 79.148438 L 37.277344 93.578125 L 38.191406 91.972656 Z M 37.160156 90.714844 "/>
<path style=" stroke:none;fill-rule:nonzero;fill:rgb(24.705882%,23.921569%,33.72549%);fill-opacity:1;" d="M 277.996094 176.601562 L 270.222656 176.601562 L 273.765625 56.375 Z M 277.996094 176.601562 "/>
<path style=" stroke:none;fill-rule:nonzero;fill:rgb(24.705882%,23.921569%,33.72549%);fill-opacity:1;" d="M 274.453125 79.160156 L 282.800781 67.597656 L 274.339844 82.023438 L 273.421875 80.421875 Z M 274.453125 79.160156 "/>
<path style=" stroke:none;fill-rule:nonzero;fill:rgb(24.705882%,23.921569%,33.72549%);fill-opacity:1;" d="M 273.539062 90.839844 L 265.191406 79.277344 L 273.652344 93.703125 L 274.566406 92.101562 Z M 273.539062 90.839844 "/>
<path style=" stroke:none;fill-rule:nonzero;fill:rgb(24.705882%,23.921569%,33.72549%);fill-opacity:1;" d="M 224.9375 105.765625 C 224.9375 144.878906 193.273438 176.582031 154.21875 176.582031 C 115.160156 176.582031 83.5 144.878906 83.5 105.765625 C 83.5 66.65625 115.160156 34.949219 154.21875 34.949219 C 193.273438 34.949219 224.9375 66.65625 224.9375 105.765625 Z M 224.9375 105.765625 "/>
<path style=" stroke:none;fill-rule:nonzero;fill:rgb(100%,100%,100%);fill-opacity:1;" d="M 219.082031 105.765625 C 219.082031 141.640625 190.042969 170.71875 154.21875 170.71875 C 118.394531 170.71875 89.355469 141.640625 89.355469 105.765625 C 89.355469 69.894531 118.394531 40.8125 154.21875 40.8125 C 190.042969 40.8125 219.082031 69.894531 219.082031 105.765625 Z M 219.082031 105.765625 "/>
<path style=" stroke:none;fill-rule:nonzero;fill:rgb(24.705882%,23.921569%,33.72549%);fill-opacity:1;" d="M 162.648438 106 C 162.648438 110.792969 158.769531 114.675781 153.984375 114.675781 C 149.199219 114.675781 145.320312 110.792969 145.320312 106 C 145.320312 101.210938 149.199219 97.324219 153.984375 97.324219 C 158.769531 97.324219 162.648438 101.210938 162.648438 106 Z M 162.648438 106 "/>
<path style=" stroke:none;fill-rule:nonzero;fill:rgb(24.705882%,23.921569%,33.72549%);fill-opacity:1;" d="M 152.109375 44.09375 L 155.855469 44.09375 L 155.855469 51.128906 L 152.109375 51.128906 Z M 152.109375 44.09375 "/>
<path style=" stroke:none;fill-rule:nonzero;fill:rgb(24.705882%,23.921569%,33.72549%);fill-opacity:1;" d="M 152.109375 160.871094 L 155.855469 160.871094 L 155.855469 167.90625 L 152.109375 167.90625 Z M 152.109375 160.871094 "/>
<path style=" stroke:none;fill-rule:nonzero;fill:rgb(24.705882%,23.921569%,33.72549%);fill-opacity:1;" d="M 99.1875 104.125 L 99.1875 107.875 L 92.164062 107.875 L 92.164062 104.125 Z M 99.1875 104.125 "/>
<path style=" stroke:none;fill-rule:nonzero;fill:rgb(24.705882%,23.921569%,33.72549%);fill-opacity:1;" d="M 215.804688 104.125 L 215.804688 107.875 L 208.777344 107.875 L 208.777344 104.125 Z M 215.804688 104.125 "/>
<path style=" stroke:none;fill-rule:nonzero;fill:rgb(24.705882%,23.921569%,33.72549%);fill-opacity:1;" d="M 151.484375 109.765625 L 154.6875 102.4375 L 194.808594 124.6875 Z M 151.484375 109.765625 "/>
<path style=" stroke:none;fill-rule:nonzero;fill:rgb(24.705882%,23.921569%,33.72549%);fill-opacity:1;" d="M 145.085938 17.832031 L 163.351562 17.832031 L 163.351562 38.9375 L 145.085938 38.9375 Z M 145.085938 17.832031 "/>
<path style=" stroke:none;fill-rule:nonzero;fill:rgb(24.705882%,23.921569%,33.72549%);fill-opacity:1;" d="M 175.292969 17.832031 C 175.292969 14.59375 165.855469 11.96875 154.21875 11.96875 C 142.578125 11.96875 133.144531 14.59375 133.144531 17.832031 C 133.144531 21.070312 142.578125 23.695312 154.21875 23.695312 C 165.855469 23.695312 175.292969 21.070312 175.292969 17.832031 Z M 175.292969 17.832031 "/>
<path style=" stroke:none;fill-rule:nonzero;fill:rgb(100%,72.156863%,72.156863%);fill-opacity:1;" d="M 193.675781 118.3125 L 192.503906 119.953125 C 192.503906 119.953125 187.117188 126.285156 186.882812 123.234375 C 186.648438 120.1875 190.863281 118.078125 190.863281 118.078125 L 193.207031 116.671875 Z M 193.675781 118.3125 "/>
<path style=" stroke:none;fill-rule:nonzero;fill:rgb(100%,72.156863%,72.156863%);fill-opacity:1;" d="M 227.007812 123.847656 L 227.988281 125.613281 C 227.988281 125.613281 231.398438 133.195312 228.546875 132.101562 C 225.695312 131.011719 225.59375 126.292969 225.59375 126.292969 L 225.324219 123.570312 Z M 227.007812 123.847656 "/>
<path style=" stroke:none;fill-rule:nonzero;fill:rgb(18.431373%,18.039216%,25.490196%);fill-opacity:1;" d="M 228.867188 85.464844 C 228.867188 89.40625 225.671875 92.605469 221.734375 92.605469 C 217.796875 92.605469 214.605469 89.40625 214.605469 85.464844 C 214.605469 81.519531 217.796875 78.324219 221.734375 78.324219 C 225.671875 78.324219 228.867188 81.519531 228.867188 85.464844 Z M 228.867188 85.464844 "/>
<path style=" stroke:none;fill-rule:nonzero;fill:rgb(100%,72.156863%,72.156863%);fill-opacity:1;" d="M 221.070312 144.105469 L 222.007812 150.203125 L 222.007812 152.078125 L 227.394531 152.078125 L 227.394531 149.734375 C 227.394531 149.734375 227.628906 145.511719 226.691406 144.339844 C 225.753906 143.167969 221.070312 144.105469 221.070312 144.105469 Z M 221.070312 144.105469 "/>
<path style=" stroke:none;fill-rule:nonzero;fill:rgb(100%,72.156863%,72.156863%);fill-opacity:1;" d="M 211.472656 144.105469 L 212.40625 150.203125 L 212.40625 152.078125 L 217.792969 152.078125 L 217.792969 149.734375 C 217.792969 149.734375 218.027344 145.511719 217.089844 144.339844 C 216.15625 143.167969 211.472656 144.105469 211.472656 144.105469 Z M 211.472656 144.105469 "/>
<path style=" stroke:none;fill-rule:nonzero;fill:rgb(42.352941%,38.823529%,100%);fill-opacity:1;" d="M 215.097656 95.132812 C 215.097656 95.132812 213.023438 96.226562 214.4375 98.714844 C 215.855469 101.199219 224.15625 126.929688 224.15625 126.929688 L 228.945312 125.570312 L 224.722656 109.296875 L 222.300781 99.070312 Z M 215.097656 95.132812 "/>
<path style=" stroke:none;fill-rule:nonzero;fill:rgb(100%,72.156863%,72.156863%);fill-opacity:1;" d="M 226.339844 87.476562 C 226.339844 90.453125 223.929688 92.871094 220.957031 92.871094 C 217.980469 92.871094 215.570312 90.453125 215.570312 87.476562 C 215.570312 84.496094 217.980469 82.082031 220.957031 82.082031 C 223.929688 82.082031 226.339844 84.496094 226.339844 87.476562 Z M 226.339844 87.476562 "/>
<path style=" stroke:none;fill-rule:nonzero;fill:rgb(100%,72.156863%,72.156863%);fill-opacity:1;" d="M 223.414062 88.296875 L 222.710938 99.316406 L 217.792969 95.800781 C 217.792969 95.800781 219.433594 89.234375 218.964844 88.765625 Z M 223.414062 88.296875 "/>
<path style=" stroke:none;fill-rule:nonzero;fill:rgb(42.352941%,38.823529%,100%);fill-opacity:1;" d="M 223.414062 98.378906 L 218.117188 94.453125 C 218.117188 94.453125 215.6875 93.457031 214.984375 94.628906 C 214.28125 95.800781 210.769531 113.152344 212.640625 116.4375 C 212.640625 116.4375 222.710938 118.546875 224.820312 117.375 L 225.753906 111.277344 C 225.753906 111.277344 226.925781 107.523438 225.054688 105.179688 Z M 223.414062 98.378906 "/>
<path style=" stroke:none;fill-rule:nonzero;fill:rgb(42.352941%,38.823529%,100%);fill-opacity:1;" d="M 216.390625 94.863281 C 216.390625 94.863281 214.515625 93.457031 212.875 95.800781 C 211.238281 98.144531 191.566406 116.671875 191.566406 116.671875 L 194.84375 120.421875 L 207.726562 109.636719 L 215.921875 103.070312 Z M 216.390625 94.863281 "/>
<path style=" stroke:none;fill-rule:nonzero;fill:rgb(18.431373%,18.039216%,25.490196%);fill-opacity:1;" d="M 224.9375 117.257812 C 224.9375 117.257812 213.34375 115.027344 212.175781 116.671875 L 211.941406 119.25 C 211.941406 119.25 209.363281 124.175781 210.769531 132.148438 C 212.175781 140.121094 211.238281 145.042969 211.238281 145.042969 C 211.238281 145.042969 217.558594 144.339844 222.242188 145.042969 C 226.925781 145.746094 227.628906 145.042969 227.628906 145.042969 Z M 224.9375 117.257812 "/>
<path style=" stroke:none;fill-rule:nonzero;fill:rgb(18.431373%,18.039216%,25.490196%);fill-opacity:1;" d="M 227.863281 151.140625 L 221.070312 151.375 L 223.414062 168.960938 C 223.414062 168.960938 221.539062 176.464844 223.648438 176.933594 C 225.113281 177.230469 226.601562 177.386719 228.097656 177.402344 C 228.097656 177.402344 230.203125 179.515625 232.546875 179.28125 C 234.101562 179.082031 235.609375 178.605469 236.996094 177.871094 C 236.996094 177.871094 237.464844 176.464844 235.824219 175.996094 C 234.183594 175.527344 229.734375 174.121094 228.800781 169.195312 Z M 227.863281 151.140625 "/>
<path style=" stroke:none;fill-rule:nonzero;fill:rgb(18.431373%,18.039216%,25.490196%);fill-opacity:1;" d="M 218.261719 151.140625 L 211.472656 151.375 L 213.8125 168.960938 C 213.8125 168.960938 211.941406 176.464844 214.046875 176.933594 C 215.511719 177.230469 217 177.386719 218.496094 177.402344 C 218.496094 177.402344 220.605469 179.515625 222.945312 179.28125 C 224.5 179.082031 226.007812 178.605469 227.394531 177.871094 C 227.394531 177.871094 227.863281 176.464844 226.222656 175.996094 C 224.585938 175.527344 220.136719 174.121094 219.199219 169.195312 Z M 218.261719 151.140625 "/>
<path style=" stroke:none;fill-rule:nonzero;fill:rgb(18.431373%,18.039216%,25.490196%);fill-opacity:1;" d="M 227.179688 77.949219 C 227.179688 79.582031 225.859375 80.902344 224.230469 80.902344 C 222.601562 80.902344 221.28125 79.582031 221.28125 77.949219 C 221.28125 76.316406 222.601562 74.992188 224.230469 74.992188 C 225.859375 74.992188 227.179688 76.316406 227.179688 77.949219 Z M 227.179688 77.949219 "/>
<path style=" stroke:none;fill-rule:nonzero;fill:rgb(18.431373%,18.039216%,25.490196%);fill-opacity:1;" d="M 228.164062 76.347656 C 228.164062 74.835938 227.023438 73.566406 225.519531 73.410156 C 225.621094 73.398438 225.726562 73.394531 225.828125 73.394531 C 227.457031 73.394531 228.777344 74.714844 228.777344 76.347656 C 228.777344 77.980469 227.457031 79.300781 225.828125 79.300781 C 225.726562 79.300781 225.621094 79.296875 225.519531 79.285156 C 227.023438 79.128906 228.164062 77.859375 228.164062 76.347656 Z M 228.164062 76.347656 "/>
<path style=" stroke:none;fill-rule:nonzero;fill:rgb(18.431373%,18.039216%,25.490196%);fill-opacity:1;" d="M 225.824219 83.949219 C 225.824219 82.316406 223.621094 80.996094 220.90625 80.996094 C 218.191406 80.996094 215.988281 82.316406 215.988281 83.949219 C 215.988281 85.582031 218.191406 86.902344 220.90625 86.902344 C 223.621094 86.902344 225.824219 85.582031 225.824219 83.949219 Z M 225.824219 83.949219 "/>
<path style=" stroke:none;fill-rule:nonzero;fill:rgb(90.196078%,90.196078%,90.196078%);fill-opacity:1;" d="M 298.359375 14.179688 C 297.945312 6.835938 292.28125 0.871094 284.980469 0.0859375 C 277.675781 -0.699219 270.875 3.921875 268.914062 11.011719 C 268.730469 11.003906 268.550781 10.996094 268.367188 10.996094 C 261.707031 11 255.84375 15.394531 253.964844 21.792969 C 249.546875 19.847656 244.371094 21.136719 241.378906 24.929688 L 288.195312 24.929688 C 290.957031 24.9375 293.601562 23.816406 295.519531 21.832031 C 297.4375 19.847656 298.46875 17.164062 298.371094 14.402344 C 298.367188 14.328125 298.363281 14.253906 298.359375 14.179688 Z M 298.359375 14.179688 "/>
<path style=" stroke:none;fill-rule:nonzero;fill:rgb(90.196078%,90.196078%,90.196078%);fill-opacity:1;" d="M 263.253906 41.773438 C 263.253906 44.003906 261.445312 45.8125 259.222656 45.8125 C 256.996094 45.8125 255.1875 44.003906 255.1875 41.773438 C 255.1875 39.546875 256.996094 37.738281 259.222656 37.738281 C 261.445312 37.738281 263.253906 39.546875 263.253906 41.773438 Z M 263.253906 41.773438 "/>
<path style=" stroke:none;fill-rule:nonzero;fill:rgb(90.196078%,90.196078%,90.196078%);fill-opacity:1;" d="M 274.75 32.257812 C 274.75 34.113281 273.246094 35.617188 271.394531 35.617188 C 269.539062 35.617188 268.035156 34.113281 268.035156 32.257812 C 268.035156 30.402344 269.539062 28.894531 271.394531 28.894531 C 273.246094 28.894531 274.75 30.402344 274.75 32.257812 Z M 274.75 32.257812 "/>
<path style=" stroke:none;fill-rule:nonzero;fill:rgb(90.196078%,90.196078%,90.196078%);fill-opacity:1;" d="M 291.808594 50.523438 C 291.808594 52.75 290.003906 54.558594 287.777344 54.558594 C 285.550781 54.558594 283.746094 52.75 283.746094 50.523438 C 283.746094 48.292969 285.550781 46.484375 287.777344 46.484375 C 290.003906 46.484375 291.808594 48.292969 291.808594 50.523438 Z M 291.808594 50.523438 "/>
<path style=" stroke:none;fill-rule:nonzero;fill:rgb(90.196078%,90.196078%,90.196078%);fill-opacity:1;" d="M 261.238281 69.023438 C 261.238281 71.253906 259.429688 73.0625 257.207031 73.0625 C 254.980469 73.0625 253.171875 71.253906 253.171875 69.023438 C 253.171875 66.796875 254.980469 64.988281 257.207031 64.988281 C 259.429688 64.988281 261.238281 66.796875 261.238281 69.023438 Z M 261.238281 69.023438 "/>
<path style=" stroke:none;fill-rule:nonzero;fill:rgb(90.196078%,90.196078%,90.196078%);fill-opacity:1;" d="M 291.808594 92.238281 C 291.808594 94.46875 290.003906 96.273438 287.777344 96.273438 C 285.550781 96.273438 283.746094 94.46875 283.746094 92.238281 C 283.746094 90.007812 285.550781 88.199219 287.777344 88.199219 C 290.003906 88.199219 291.808594 90.007812 291.808594 92.238281 Z M 291.808594 92.238281 "/>
<path style=" stroke:none;fill-rule:nonzero;fill:rgb(90.196078%,90.196078%,90.196078%);fill-opacity:1;" d="M 281.386719 170.078125 C 281.386719 170.035156 281.394531 169.992188 281.394531 169.949219 C 281.394531 168.574219 280.699219 167.292969 279.542969 166.550781 C 278.386719 165.808594 276.933594 165.707031 275.6875 166.28125 C 274.503906 164.914062 272.550781 164.503906 270.921875 165.28125 C 269.289062 166.058594 268.375 167.832031 268.6875 169.617188 C 268.667969 169.617188 268.648438 169.613281 268.628906 169.613281 C 266.863281 169.609375 265.304688 170.753906 264.777344 172.4375 C 264.246094 174.121094 264.871094 175.953125 266.316406 176.964844 C 267.765625 177.972656 269.699219 177.921875 271.089844 176.839844 C 271.742188 178.109375 273.015625 178.941406 274.4375 179.023438 C 275.863281 179.109375 277.222656 178.433594 278.019531 177.25 C 279.332031 178.203125 281.085938 178.28125 282.476562 177.4375 C 283.863281 176.597656 284.609375 175.003906 284.375 173.398438 C 284.136719 171.789062 282.957031 170.480469 281.386719 170.078125 Z M 281.386719 170.078125 "/>
<path style=" stroke:none;fill-rule:nonzero;fill:rgb(90.196078%,90.196078%,90.196078%);fill-opacity:1;" d="M 293.152344 76.089844 C 293.152344 77.019531 292.398438 77.773438 291.472656 77.773438 C 290.542969 77.773438 289.792969 77.019531 289.792969 76.089844 C 289.792969 75.160156 290.542969 74.40625 291.472656 74.40625 C 292.398438 74.40625 293.152344 75.160156 293.152344 76.089844 Z M 293.152344 76.089844 "/>
<path style=" stroke:none;fill-rule:nonzero;fill:rgb(90.196078%,90.196078%,90.196078%);fill-opacity:1;" d="M 282.402344 35.71875 C 282.402344 36.648438 281.648438 37.402344 280.722656 37.402344 C 279.792969 37.402344 279.042969 36.648438 279.042969 35.71875 C 279.042969 34.789062 279.792969 34.039062 280.722656 34.039062 C 281.648438 34.039062 282.402344 34.789062 282.402344 35.71875 Z M 282.402344 35.71875 "/>
<path style=" stroke:none;fill-rule:nonzero;fill:rgb(90.196078%,90.196078%,90.196078%);fill-opacity:1;" d="M 276.691406 77.433594 C 276.691406 78.363281 275.9375 79.117188 275.011719 79.117188 C 274.082031 79.117188 273.332031 78.363281 273.332031 77.433594 C 273.332031 76.507812 274.082031 75.753906 275.011719 75.753906 C 275.9375 75.753906 276.691406 76.507812 276.691406 77.433594 Z M 276.691406 77.433594 "/>
<path style=" stroke:none;fill-rule:nonzero;fill:rgb(90.196078%,90.196078%,90.196078%);fill-opacity:1;" d="M 278.035156 75.753906 C 278.035156 76.683594 277.28125 77.433594 276.355469 77.433594 C 275.425781 77.433594 274.675781 76.683594 274.675781 75.753906 C 274.675781 74.824219 275.425781 74.070312 276.355469 74.070312 C 277.28125 74.070312 278.035156 74.824219 278.035156 75.753906 Z M 278.035156 75.753906 "/>
<path style=" stroke:none;fill-rule:nonzero;fill:rgb(90.196078%,90.196078%,90.196078%);fill-opacity:1;" d="M 279.042969 74.070312 C 279.042969 75 278.289062 75.753906 277.363281 75.753906 C 276.433594 75.753906 275.683594 75 275.683594 74.070312 C 275.683594 73.140625 276.433594 72.390625 277.363281 72.390625 C 278.289062 72.390625 279.042969 73.140625 279.042969 74.070312 Z M 279.042969 74.070312 "/>
<path style=" stroke:none;fill-rule:nonzero;fill:rgb(90.196078%,90.196078%,90.196078%);fill-opacity:1;" d="M 275.011719 88.199219 C 275.011719 89.128906 274.257812 89.882812 273.332031 89.882812 C 272.402344 89.882812 271.652344 89.128906 271.652344 88.199219 C 271.652344 87.269531 272.402344 86.519531 273.332031 86.519531 C 274.257812 86.519531 275.011719 87.269531 275.011719 88.199219 Z M 275.011719 88.199219 "/>
<path style=" stroke:none;fill-rule:nonzero;fill:rgb(90.196078%,90.196078%,90.196078%);fill-opacity:1;" d="M 299.871094 107.039062 C 299.871094 107.96875 299.117188 108.722656 298.191406 108.722656 C 297.261719 108.722656 296.511719 107.96875 296.511719 107.039062 C 296.511719 106.109375 297.261719 105.359375 298.191406 105.359375 C 299.117188 105.359375 299.871094 106.109375 299.871094 107.039062 Z M 299.871094 107.039062 "/>
<path style=" stroke:none;fill-rule:nonzero;fill:rgb(90.196078%,90.196078%,90.196078%);fill-opacity:1;" d="M 263.925781 108.046875 C 263.925781 108.976562 263.171875 109.730469 262.246094 109.730469 C 261.316406 109.730469 260.566406 108.976562 260.566406 108.046875 C 260.566406 107.121094 261.316406 106.367188 262.246094 106.367188 C 263.171875 106.367188 263.925781 107.121094 263.925781 108.046875 Z M 263.925781 108.046875 "/>
<path style=" stroke:none;fill-rule:nonzero;fill:rgb(90.196078%,90.196078%,90.196078%);fill-opacity:1;" d="M 265.941406 56.242188 C 265.941406 57.171875 265.1875 57.921875 264.261719 57.921875 C 263.332031 57.921875 262.582031 57.171875 262.582031 56.242188 C 262.582031 55.3125 263.332031 54.558594 264.261719 54.558594 C 265.1875 54.558594 265.941406 55.3125 265.941406 56.242188 Z M 265.941406 56.242188 "/>
<path style=" stroke:none;fill-rule:nonzero;fill:rgb(90.196078%,90.196078%,90.196078%);fill-opacity:1;" d="M 273.667969 86.519531 C 273.667969 87.449219 272.914062 88.199219 271.988281 88.199219 C 271.058594 88.199219 270.308594 87.449219 270.308594 86.519531 C 270.308594 85.589844 271.058594 84.835938 271.988281 84.835938 C 272.914062 84.835938 273.667969 85.589844 273.667969 86.519531 Z M 273.667969 86.519531 "/>
<path style=" stroke:none;fill-rule:nonzero;fill:rgb(90.196078%,90.196078%,90.196078%);fill-opacity:1;" d="M 271.988281 83.828125 C 271.988281 84.757812 271.234375 85.507812 270.308594 85.507812 C 269.378906 85.507812 268.628906 84.757812 268.628906 83.828125 C 268.628906 82.898438 269.378906 82.144531 270.308594 82.144531 C 271.234375 82.144531 271.988281 82.898438 271.988281 83.828125 Z M 271.988281 83.828125 "/>
</g>
</svg>
